<svg width="798" height="110" viewBox="0 0 798 110" fill="none" xmlns="http://www.w3.org/2000/svg">
<path d="M280.625 75V48.837H284.475C285.291 48.837 285.827 49.2195 286.082 49.9845L286.49 51.9225C286.949 51.4125 287.425 50.945 287.918 50.52C288.428 50.095 288.963 49.7295 289.524 49.4235C290.102 49.1175 290.714 48.8795 291.36 48.7095C292.023 48.5225 292.746 48.429 293.528 48.429C295.177 48.429 296.528 48.8795 297.582 49.7805C298.653 50.6645 299.452 51.846 299.979 53.325C300.387 52.458 300.897 51.7185 301.509 51.1065C302.121 50.4775 302.793 49.9675 303.524 49.5765C304.255 49.1855 305.028 48.8965 305.844 48.7095C306.677 48.5225 307.51 48.429 308.343 48.429C309.788 48.429 311.072 48.65 312.194 49.092C313.316 49.534 314.259 50.18 315.024 51.03C315.789 51.88 316.367 52.917 316.758 54.141C317.166 55.365 317.37 56.7675 317.37 58.3485V75H311.072V58.3485C311.072 56.6825 310.706 55.433 309.975 54.6C309.244 53.75 308.173 53.325 306.762 53.325C306.116 53.325 305.513 53.4355 304.952 53.6565C304.408 53.8775 303.923 54.2005 303.498 54.6255C303.09 55.0335 302.767 55.552 302.529 56.181C302.291 56.81 302.172 57.5325 302.172 58.3485V75H295.848V58.3485C295.848 56.5975 295.491 55.3225 294.777 54.5235C294.08 53.7245 293.052 53.325 291.692 53.325C290.774 53.325 289.915 53.5545 289.116 54.0135C288.334 54.4555 287.603 55.0675 286.923 55.8495V75H280.625ZM346.926 48.837L332.671 82.191C332.484 82.633 332.238 82.9645 331.932 83.1855C331.643 83.4235 331.192 83.5425 330.58 83.5425H325.888L330.784 73.0365L320.202 48.837H325.735C326.228 48.837 326.611 48.956 326.883 49.194C327.172 49.432 327.384 49.704 327.52 50.01L333.079 63.576C333.266 64.035 333.419 64.494 333.538 64.953C333.674 65.412 333.802 65.8795 333.921 66.3555C334.074 65.8795 334.227 65.412 334.38 64.953C334.533 64.477 334.703 64.0095 334.89 63.5505L340.143 50.01C340.279 49.67 340.5 49.3895 340.806 49.1685C341.129 48.9475 341.486 48.837 341.877 48.837H346.926Z" fill="#4245FF"/>
<path d="M358.353 51.642C359.373 50.69 360.495 49.9165 361.719 49.3215C362.943 48.7265 364.379 48.429 366.028 48.429C367.456 48.429 368.723 48.6755 369.828 49.1685C370.933 49.6445 371.851 50.3245 372.582 51.2085C373.33 52.0755 373.891 53.121 374.265 54.345C374.656 55.552 374.851 56.8865 374.851 58.3485V75H368.553V58.3485C368.553 56.7505 368.187 55.518 367.456 54.651C366.725 53.767 365.612 53.325 364.116 53.325C363.028 53.325 362.008 53.5715 361.056 54.0645C360.104 54.5575 359.203 55.229 358.353 56.079V75H352.054V37.107H358.353V51.642ZM396.662 63.831C394.843 63.916 393.313 64.0775 392.072 64.3155C390.831 64.5365 389.837 64.8255 389.089 65.1825C388.341 65.5395 387.805 65.956 387.482 66.432C387.159 66.908 386.998 67.4265 386.998 67.9875C386.998 69.0925 387.321 69.883 387.967 70.359C388.63 70.835 389.488 71.073 390.542 71.073C391.834 71.073 392.948 70.8435 393.883 70.3845C394.835 69.9085 395.761 69.1945 396.662 68.2425V63.831ZM382.229 52.4835C385.238 49.7295 388.859 48.3525 393.092 48.3525C394.622 48.3525 395.991 48.6075 397.198 49.1175C398.405 49.6105 399.425 50.3075 400.258 51.2085C401.091 52.0925 401.72 53.155 402.145 54.396C402.587 55.637 402.808 56.997 402.808 58.476V75H399.952C399.357 75 398.898 74.915 398.575 74.745C398.252 74.558 397.997 74.1925 397.81 73.6485L397.249 71.7615C396.586 72.3565 395.94 72.8835 395.311 73.3425C394.682 73.7845 394.027 74.1585 393.347 74.4645C392.667 74.7705 391.936 75 391.154 75.153C390.389 75.323 389.539 75.408 388.604 75.408C387.499 75.408 386.479 75.2635 385.544 74.9745C384.609 74.6685 383.802 74.218 383.122 73.623C382.442 73.028 381.915 72.2885 381.541 71.4045C381.167 70.5205 380.98 69.492 380.98 68.319C380.98 67.656 381.09 67.0015 381.311 66.3555C381.532 65.6925 381.889 65.0635 382.382 64.4685C382.892 63.8735 383.547 63.3125 384.346 62.7855C385.145 62.2585 386.122 61.7995 387.278 61.4085C388.451 61.0175 389.811 60.703 391.358 60.465C392.905 60.21 394.673 60.057 396.662 60.006V58.476C396.662 56.725 396.288 55.433 395.54 54.6C394.792 53.75 393.713 53.325 392.302 53.325C391.282 53.325 390.432 53.444 389.752 53.682C389.089 53.92 388.502 54.192 387.992 54.498C387.482 54.787 387.015 55.0505 386.59 55.2885C386.182 55.5265 385.723 55.6455 385.213 55.6455C384.771 55.6455 384.397 55.535 384.091 55.314C383.785 55.076 383.538 54.804 383.351 54.498L382.229 52.4835ZM446.348 48.837L438.035 75H432.986C432.408 75 432.009 74.626 431.788 73.878L427.096 58.7565C426.943 58.2465 426.798 57.745 426.662 57.252C426.543 56.742 426.441 56.232 426.356 55.722C426.254 56.232 426.135 56.7505 425.999 57.2775C425.88 57.7875 425.744 58.2975 425.591 58.8075L420.823 73.878C420.619 74.626 420.168 75 419.471 75H414.626L406.339 48.837H411.362C411.821 48.837 412.212 48.9475 412.535 49.1685C412.858 49.3895 413.071 49.67 413.173 50.01L416.921 63.984C417.108 64.749 417.27 65.497 417.406 66.228C417.559 66.959 417.686 67.69 417.788 68.421C417.975 67.69 418.171 66.959 418.375 66.228C418.596 65.497 418.825 64.749 419.063 63.984L423.398 49.959C423.5 49.619 423.696 49.3385 423.985 49.1175C424.291 48.8965 424.656 48.786 425.081 48.786H427.861C428.303 48.786 428.677 48.8965 428.983 49.1175C429.306 49.3385 429.518 49.619 429.62 49.959L433.828 63.984C434.049 64.749 434.253 65.5055 434.44 66.2535C434.644 66.9845 434.839 67.7155 435.026 68.4465C435.247 67.0015 435.562 65.514 435.97 63.984L439.82 50.01C439.939 49.67 440.152 49.3895 440.458 49.1685C440.764 48.9475 441.129 48.837 441.554 48.837H446.348ZM456.729 37.107V58.8075H457.902C458.327 58.8075 458.658 58.7565 458.896 58.6545C459.151 58.5355 459.406 58.306 459.661 57.966L466.164 49.9335C466.436 49.5765 466.733 49.3045 467.056 49.1175C467.396 48.9305 467.83 48.837 468.357 48.837H474.12L465.985 58.5525C465.407 59.3175 464.778 59.904 464.098 60.312C464.455 60.567 464.77 60.8645 465.042 61.2045C465.331 61.5445 465.603 61.91 465.858 62.301L474.579 75H468.892C468.399 75 467.974 74.9235 467.617 74.7705C467.26 74.6005 466.963 74.303 466.725 73.878L460.044 63.9585C459.806 63.5675 459.559 63.3125 459.304 63.1935C459.049 63.0745 458.667 63.015 458.157 63.015H456.729V75H450.43V37.107H456.729ZM493.684 58.9095C493.684 58.0935 493.565 57.3285 493.327 56.6145C493.106 55.8835 492.766 55.246 492.307 54.702C491.848 54.158 491.262 53.733 490.548 53.427C489.851 53.104 489.035 52.9425 488.1 52.9425C486.281 52.9425 484.844 53.461 483.79 54.498C482.753 55.535 482.09 57.0055 481.801 58.9095H493.684ZM481.674 62.709C481.776 64.052 482.014 65.2165 482.388 66.2025C482.762 67.1715 483.255 67.979 483.867 68.625C484.479 69.254 485.201 69.73 486.034 70.053C486.884 70.359 487.819 70.512 488.839 70.512C489.859 70.512 490.735 70.393 491.466 70.155C492.214 69.917 492.86 69.6535 493.404 69.3645C493.965 69.0755 494.449 68.812 494.857 68.574C495.282 68.336 495.69 68.217 496.081 68.217C496.608 68.217 496.999 68.4125 497.254 68.8035L499.065 71.0985C498.368 71.9145 497.586 72.603 496.719 73.164C495.852 73.708 494.942 74.15 493.99 74.49C493.055 74.813 492.095 75.0425 491.109 75.1785C490.14 75.3145 489.196 75.3825 488.278 75.3825C486.459 75.3825 484.768 75.085 483.204 74.49C481.64 73.878 480.28 72.9855 479.124 71.8125C477.968 70.6225 477.058 69.1605 476.395 67.4265C475.732 65.6755 475.401 63.6525 475.401 61.3575C475.401 59.5725 475.69 57.898 476.268 56.334C476.846 54.753 477.67 53.3845 478.741 52.2285C479.829 51.0555 481.147 50.129 482.694 49.449C484.258 48.769 486.017 48.429 487.972 48.429C489.621 48.429 491.143 48.6925 492.537 49.2195C493.931 49.7465 495.129 50.52 496.132 51.54C497.135 52.543 497.917 53.784 498.478 55.263C499.056 56.725 499.345 58.3995 499.345 60.2865C499.345 61.2385 499.243 61.8845 499.039 62.2245C498.835 62.5475 498.444 62.709 497.866 62.709H481.674ZM510.513 53.376C511.329 51.812 512.298 50.588 513.42 49.704C514.542 48.803 515.868 48.3525 517.398 48.3525C518.605 48.3525 519.574 48.616 520.305 49.143L519.897 53.8605C519.812 54.1665 519.685 54.3875 519.515 54.5235C519.362 54.6425 519.149 54.702 518.877 54.702C518.622 54.702 518.24 54.6595 517.73 54.5745C517.237 54.4895 516.752 54.447 516.276 54.447C515.579 54.447 514.959 54.549 514.415 54.753C513.871 54.957 513.378 55.2545 512.936 55.6455C512.511 56.0195 512.128 56.4785 511.788 57.0225C511.465 57.5665 511.159 58.187 510.87 58.884V75H504.572V48.837H508.269C508.915 48.837 509.366 48.956 509.621 49.194C509.876 49.415 510.046 49.823 510.131 50.418L510.513 53.376Z" fill="black"/>
<path d="M245.102 45.9662C242.483 45.7178 240.066 46.1888 238.322 47.1411C239.145 48.1918 239.673 49.8377 239.673 51.6906C239.673 53.202 239.321 54.5735 238.746 55.5983C240.211 56.4731 242.085 57.089 244.16 57.2856C249.165 57.7618 253.435 55.6087 253.694 52.4825C253.953 49.3564 250.107 46.4424 245.102 45.9662Z" fill="#FFB89A"/>
<path d="M208.478 54.5684L208.53 56.1729C208.644 59.6769 209.886 63.0877 212.132 66.0275C214.285 68.8483 217.287 71.1619 220.822 72.7198C221.609 73.0666 222.525 72.7095 222.867 71.9228C223.213 71.136 222.856 70.2199 222.07 69.8783C219.016 68.5326 216.433 66.5503 214.596 64.1436C213.095 62.1768 212.137 59.9667 211.78 57.6738H251.251C250.888 59.9926 249.915 62.2233 248.383 64.2108C246.515 66.6331 243.891 68.6206 240.785 69.9508C239.999 70.2872 239.636 71.2033 239.973 71.99C240.226 72.5801 240.796 72.932 241.401 72.932C241.608 72.932 241.815 72.8906 242.012 72.8078C249.491 69.5885 254.279 63.2171 254.501 56.1729L254.553 54.5684H208.478Z" fill="#4245FF"/>
<path d="M235.636 70.4114H227.406C225.584 70.4114 224.088 71.902 224.088 73.7291C224.088 75.5562 225.579 77.0468 227.406 77.0468H235.636C237.457 77.0468 238.953 75.5562 238.953 73.7291C238.953 71.902 237.457 70.4114 235.636 70.4114ZM235.636 73.9361H227.406C227.297 73.9361 227.194 73.8326 227.194 73.7239C227.194 73.6152 227.297 73.5117 227.406 73.5117H235.636C235.744 73.5117 235.848 73.6152 235.848 73.7239C235.848 73.8326 235.744 73.9361 235.636 73.9361Z" fill="#4245FF"/>
<path d="M230.781 48.3315C230.284 47.6328 229.311 47.4724 228.612 47.9744C227.913 48.4713 227.753 49.4443 228.255 50.1431C228.814 50.9246 229.114 51.8511 229.114 52.8189C229.114 53.6781 229.808 54.3717 230.667 54.3717C231.526 54.3717 232.219 53.6781 232.219 52.8189C232.219 51.1937 231.723 49.641 230.781 48.3315ZM227.38 45.6557C226.464 45.2882 225.501 45.1019 224.508 45.1019C220.253 45.1019 216.796 48.5593 216.796 52.8138C216.796 53.6729 217.489 54.3665 218.348 54.3665C219.208 54.3665 219.901 53.6729 219.901 52.8138C219.901 50.2725 221.966 48.2073 224.508 48.2073C225.103 48.2073 225.677 48.316 226.221 48.5386C227.018 48.8595 227.918 48.4713 228.239 47.6742C228.56 46.8771 228.177 45.9714 227.38 45.6557Z" fill="#33CC99"/>
<path d="M233.436 43.2179C231.019 40.8577 227.862 39.5534 224.544 39.5534C221.226 39.5534 218.069 40.8525 215.652 43.2179C213.266 45.5521 211.822 48.7042 211.584 52.0891C211.522 52.9432 212.169 53.6885 213.023 53.7454C213.877 53.8023 214.622 53.1605 214.679 52.3065C214.86 49.6772 215.978 47.2394 217.821 45.4383C219.653 43.6474 222.039 42.6589 224.544 42.6589C227.044 42.6589 229.435 43.6474 231.267 45.4383C233.11 47.2394 234.223 49.6772 234.409 52.3065C234.466 53.1243 235.149 53.7506 235.956 53.7506C235.993 53.7506 236.029 53.7506 236.065 53.7454C236.919 53.6833 237.566 52.9432 237.504 52.0891C237.266 48.7042 235.822 45.5521 233.436 43.2179ZM251.329 48.9733C250.733 47.9692 249.895 47.079 248.839 46.3233L251.629 43.3058C252.208 42.6744 252.172 41.691 251.541 41.1113C250.909 40.5316 249.926 40.5679 249.346 41.1993L245.982 44.8431C245.723 44.7499 245.459 44.6619 245.19 44.5843L249.455 36.3444C249.848 35.5836 249.553 34.6468 248.787 34.2534C248.026 33.86 247.09 34.1551 246.696 34.9211L241.976 44.046C241.691 44.0305 241.401 44.0201 241.112 44.0201C239.978 44.0201 238.86 44.1443 237.784 44.3928C236.95 44.5843 236.427 45.4176 236.619 46.256C236.81 47.0893 237.644 47.6121 238.482 47.4206C239.326 47.2239 240.211 47.1256 241.106 47.1256C243.363 47.1256 245.464 47.7363 247.022 48.8491C248.425 49.848 249.196 51.1265 249.196 52.4463C249.196 53.3055 249.89 53.999 250.749 53.999C251.608 53.999 252.302 53.3055 252.302 52.4463C252.302 51.23 251.976 50.0602 251.329 48.9733Z" fill="#4245FF"/>
</svg>
