<svg width="53" height="53" viewBox="0 0 53 53" fill="none" xmlns="http://www.w3.org/2000/svg">
<path d="M40.1021 16.9662C37.4831 16.7178 35.066 17.1888 33.3218 18.1411C34.1447 19.1918 34.6727 20.8377 34.6727 22.6906C34.6727 24.202 34.3207 25.5735 33.7462 26.5983C35.2109 27.4731 37.0846 28.089 39.1601 28.2856C44.165 28.7618 48.4351 26.6087 48.6938 23.4825C48.9526 20.3564 45.107 17.4424 40.1021 16.9662Z" fill="#FFB89A"/>
<path d="M3.47803 25.5684L3.52979 27.1729C3.64365 30.6769 4.88584 34.0877 7.13213 37.0275C9.28525 39.8483 12.2872 42.1619 15.8223 43.7198C16.609 44.0666 17.5251 43.7095 17.8667 42.9228C18.2135 42.136 17.8563 41.2199 17.0696 40.8783C14.0159 39.5326 11.4332 37.5503 9.5958 35.1436C8.09482 33.1768 7.1373 30.9667 6.78018 28.6738H46.2507C45.8884 30.9926 44.9153 33.2233 43.3833 35.2108C41.5148 37.6331 38.8907 39.6206 35.7853 40.9508C34.9985 41.2872 34.6362 42.2033 34.9727 42.99C35.2263 43.5801 35.7956 43.932 36.4012 43.932C36.6082 43.932 36.8152 43.8906 37.0119 43.8078C44.4909 40.5885 49.2785 34.2171 49.5011 27.1729L49.5528 25.5684H3.47803Z" fill="#4245FF"/>
<path d="M30.6355 41.4114H22.4061C20.5842 41.4114 19.0884 42.902 19.0884 44.7291C19.0884 46.5562 20.579 48.0468 22.4061 48.0468H30.6355C32.4574 48.0468 33.9532 46.5562 33.9532 44.7291C33.9532 42.902 32.4574 41.4114 30.6355 41.4114ZM30.6355 44.9361H22.4061C22.2974 44.9361 22.1938 44.8326 22.1938 44.7239C22.1938 44.6152 22.2974 44.5117 22.4061 44.5117H30.6355C30.7442 44.5117 30.8478 44.6152 30.8478 44.7239C30.8478 44.8326 30.7442 44.9361 30.6355 44.9361Z" fill="#4245FF"/>
<path d="M25.7806 19.3315C25.2837 18.6328 24.3107 18.4724 23.612 18.9744C22.9132 19.4713 22.7528 20.4443 23.2548 21.1431C23.8138 21.9246 24.114 22.8511 24.114 23.8189C24.114 24.6781 24.8076 25.3717 25.6667 25.3717C26.5259 25.3717 27.2195 24.6781 27.2195 23.8189C27.2195 22.1937 26.7226 20.641 25.7806 19.3315ZM22.3801 16.6557C21.464 16.2882 20.5013 16.1019 19.5076 16.1019C15.2531 16.1019 11.7957 19.5593 11.7957 23.8138C11.7957 24.6729 12.4892 25.3665 13.3484 25.3665C14.2076 25.3665 14.9011 24.6729 14.9011 23.8138C14.9011 21.2725 16.9663 19.2073 19.5076 19.2073C20.1028 19.2073 20.6773 19.316 21.2208 19.5386C22.0178 19.8595 22.9184 19.4713 23.2393 18.6742C23.5602 17.8771 23.1772 16.9714 22.3801 16.6557Z" fill="#33CC99"/>
<path d="M28.4359 14.2179C26.0188 11.8577 22.8615 10.5534 19.5439 10.5534C16.2262 10.5534 13.069 11.8525 10.6519 14.2179C8.26584 16.5521 6.8218 19.7042 6.58371 23.0891C6.5216 23.9432 7.16858 24.6885 8.02258 24.7454C8.87658 24.8023 9.6219 24.1605 9.67883 23.3065C9.85998 20.6772 10.978 18.2394 12.8205 16.4383C14.6528 14.6474 17.0388 13.6589 19.5439 13.6589C22.0438 13.6589 24.435 14.6474 26.2672 16.4383C28.1098 18.2394 29.2226 20.6772 29.4089 23.3065C29.4658 24.1243 30.149 24.7506 30.9565 24.7506C30.9927 24.7506 31.0289 24.7506 31.0652 24.7454C31.9192 24.6833 32.5661 23.9432 32.504 23.0891C32.2659 19.7042 30.8219 16.5521 28.4359 14.2179ZM46.3285 19.9733C45.7333 18.9692 44.8948 18.079 43.839 17.3233L46.6287 14.3058C47.2084 13.6744 47.1722 12.691 46.5407 12.1113C45.9093 11.5316 44.9259 11.5679 44.3462 12.1993L40.982 15.8431C40.7232 15.7499 40.4592 15.6619 40.1901 15.5843L44.4549 7.34442C44.8483 6.58358 44.5532 5.64677 43.7872 5.25341C43.0264 4.86005 42.0896 5.15507 41.6962 5.92108L36.9759 15.046C36.6912 15.0305 36.4014 15.0201 36.1115 15.0201C34.9781 15.0201 33.8601 15.1443 32.7835 15.3928C31.9502 15.5843 31.4275 16.4176 31.619 17.256C31.8105 18.0893 32.6438 18.6121 33.4823 18.4206C34.3259 18.2239 35.211 18.1256 36.1064 18.1256C38.363 18.1256 40.4644 18.7363 42.0223 19.8491C43.4249 20.848 44.1961 22.1265 44.1961 23.4463C44.1961 24.3055 44.8897 24.999 45.7489 24.999C46.608 24.999 47.3016 24.3055 47.3016 23.4463C47.3016 22.23 46.9755 21.0602 46.3285 19.9733Z" fill="#4245FF"/>
</svg>
