<svg width="240" height="47" viewBox="0 0 240 47" fill="none" xmlns="http://www.w3.org/2000/svg">
<path d="M-8.37594e-05 37.893V11.73H3.85042C4.66642 11.73 5.20192 12.1125 5.45692 12.8775L5.86492 14.8155C6.32392 14.3055 6.79992 13.838 7.29292 13.413C7.80292 12.988 8.33842 12.6225 8.89942 12.3165C9.47742 12.0105 10.0894 11.7725 10.7354 11.6025C11.3984 11.4155 12.1209 11.322 12.9029 11.322C14.5519 11.322 15.9034 11.7725 16.9574 12.6735C18.0284 13.5575 18.8274 14.739 19.3544 16.218C19.7624 15.351 20.2724 14.6115 20.8844 13.9995C21.4964 13.3705 22.1679 12.8605 22.8989 12.4695C23.6299 12.0785 24.4034 11.7895 25.2194 11.6025C26.0524 11.4155 26.8854 11.322 27.7184 11.322C29.1634 11.322 30.4469 11.543 31.5689 11.985C32.6909 12.427 33.6344 13.073 34.3994 13.923C35.1644 14.773 35.7424 15.81 36.1334 17.034C36.5414 18.258 36.7454 19.6605 36.7454 21.2415V37.893H30.4469V21.2415C30.4469 19.5755 30.0814 18.326 29.3504 17.493C28.6194 16.643 27.5484 16.218 26.1374 16.218C25.4914 16.218 24.8879 16.3285 24.3269 16.5495C23.7829 16.7705 23.2984 17.0935 22.8734 17.5185C22.4654 17.9265 22.1424 18.445 21.9044 19.074C21.6664 19.703 21.5474 20.4255 21.5474 21.2415V37.893H15.2234V21.2415C15.2234 19.4905 14.8664 18.2155 14.1524 17.4165C13.4554 16.6175 12.4269 16.218 11.0669 16.218C10.1489 16.218 9.29042 16.4475 8.49142 16.9065C7.70942 17.3485 6.97842 17.9605 6.29842 18.7425V37.893H-8.37594e-05ZM66.3011 11.73L52.0466 45.084C51.8596 45.526 51.6131 45.8575 51.3071 46.0785C51.0181 46.3165 50.5676 46.4355 49.9556 46.4355H45.2636L50.1596 35.9295L39.5771 11.73H45.1106C45.6036 11.73 45.9861 11.849 46.2581 12.087C46.5471 12.325 46.7596 12.597 46.8956 12.903L52.4546 26.469C52.6416 26.928 52.7946 27.387 52.9136 27.846C53.0496 28.305 53.1771 28.7725 53.2961 29.2485C53.4491 28.7725 53.6021 28.305 53.7551 27.846C53.9081 27.37 54.0781 26.9025 54.2651 26.4435L59.5181 12.903C59.6541 12.563 59.8751 12.2825 60.1811 12.0615C60.5041 11.8405 60.8611 11.73 61.2521 11.73H66.3011Z" fill="#4245FF"/>
<path d="M77.7281 14.535C78.7481 13.583 79.8701 12.8095 81.0941 12.2145C82.3181 11.6195 83.7546 11.322 85.4036 11.322C86.8316 11.322 88.0981 11.5685 89.2031 12.0615C90.3081 12.5375 91.2261 13.2175 91.9571 14.1015C92.7051 14.9685 93.2661 16.014 93.6401 17.238C94.0311 18.445 94.2266 19.7795 94.2266 21.2415V37.893H87.9281V21.2415C87.9281 19.6435 87.5626 18.411 86.8316 17.544C86.1006 16.66 84.9871 16.218 83.4911 16.218C82.4031 16.218 81.3831 16.4645 80.4311 16.9575C79.4791 17.4505 78.5781 18.122 77.7281 18.972V37.893H71.4296V3.8147e-06H77.7281V14.535ZM116.038 26.724C114.219 26.809 112.689 26.9705 111.448 27.2085C110.207 27.4295 109.212 27.7185 108.464 28.0755C107.716 28.4325 107.181 28.849 106.858 29.325C106.535 29.801 106.373 30.3195 106.373 30.8805C106.373 31.9855 106.696 32.776 107.342 33.252C108.005 33.728 108.864 33.966 109.918 33.966C111.21 33.966 112.323 33.7365 113.258 33.2775C114.21 32.8015 115.137 32.0875 116.038 31.1355V26.724ZM101.605 15.3765C104.614 12.6225 108.235 11.2455 112.468 11.2455C113.998 11.2455 115.366 11.5005 116.573 12.0105C117.78 12.5035 118.8 13.2005 119.633 14.1015C120.466 14.9855 121.095 16.048 121.52 17.289C121.962 18.53 122.183 19.89 122.183 21.369V37.893H119.327C118.732 37.893 118.273 37.808 117.95 37.638C117.627 37.451 117.372 37.0855 117.185 36.5415L116.624 34.6545C115.961 35.2495 115.315 35.7765 114.686 36.2355C114.057 36.6775 113.403 37.0515 112.723 37.3575C112.043 37.6635 111.312 37.893 110.53 38.046C109.765 38.216 108.915 38.301 107.98 38.301C106.875 38.301 105.855 38.1565 104.92 37.8675C103.985 37.5615 103.177 37.111 102.497 36.516C101.817 35.921 101.29 35.1815 100.916 34.2975C100.542 33.4135 100.355 32.385 100.355 31.212C100.355 30.549 100.466 29.8945 100.687 29.2485C100.908 28.5855 101.265 27.9565 101.758 27.3615C102.268 26.7665 102.922 26.2055 103.721 25.6785C104.52 25.1515 105.498 24.6925 106.654 24.3015C107.827 23.9105 109.187 23.596 110.734 23.358C112.281 23.103 114.049 22.95 116.038 22.899V21.369C116.038 19.618 115.664 18.326 114.916 17.493C114.168 16.643 113.088 16.218 111.677 16.218C110.657 16.218 109.807 16.337 109.127 16.575C108.464 16.813 107.878 17.085 107.368 17.391C106.858 17.68 106.39 17.9435 105.965 18.1815C105.557 18.4195 105.098 18.5385 104.588 18.5385C104.146 18.5385 103.772 18.428 103.466 18.207C103.16 17.969 102.914 17.697 102.727 17.391L101.605 15.3765ZM165.724 11.73L157.411 37.893H152.362C151.784 37.893 151.384 37.519 151.163 36.771L146.471 21.6495C146.318 21.1395 146.174 20.638 146.038 20.145C145.919 19.635 145.817 19.125 145.732 18.615C145.63 19.125 145.511 19.6435 145.375 20.1705C145.256 20.6805 145.12 21.1905 144.967 21.7005L140.198 36.771C139.994 37.519 139.544 37.893 138.847 37.893H134.002L125.714 11.73H130.738C131.197 11.73 131.588 11.8405 131.911 12.0615C132.234 12.2825 132.446 12.563 132.548 12.903L136.297 26.877C136.484 27.642 136.645 28.39 136.781 29.121C136.934 29.852 137.062 30.583 137.164 31.314C137.351 30.583 137.546 29.852 137.75 29.121C137.971 28.39 138.201 27.642 138.439 26.877L142.774 12.852C142.876 12.512 143.071 12.2315 143.36 12.0105C143.666 11.7895 144.032 11.679 144.457 11.679H147.236C147.678 11.679 148.052 11.7895 148.358 12.0105C148.681 12.2315 148.894 12.512 148.996 12.852L153.203 26.877C153.424 27.642 153.628 28.3985 153.815 29.1465C154.019 29.8775 154.215 30.6085 154.402 31.3395C154.623 29.8945 154.937 28.407 155.345 26.877L159.196 12.903C159.315 12.563 159.527 12.2825 159.833 12.0615C160.139 11.8405 160.505 11.73 160.93 11.73H165.724ZM176.104 3.8147e-06V21.7005H177.277C177.702 21.7005 178.034 21.6495 178.272 21.5475C178.527 21.4285 178.782 21.199 179.037 20.859L185.539 12.8265C185.811 12.4695 186.109 12.1975 186.432 12.0105C186.772 11.8235 187.205 11.73 187.732 11.73H193.495L185.361 21.4455C184.783 22.2105 184.154 22.797 183.474 23.205C183.831 23.46 184.145 23.7575 184.417 24.0975C184.706 24.4375 184.978 24.803 185.233 25.194L193.954 37.893H188.268C187.775 37.893 187.35 37.8165 186.993 37.6635C186.636 37.4935 186.338 37.196 186.1 36.771L179.419 26.8515C179.181 26.4605 178.935 26.2055 178.68 26.0865C178.425 25.9675 178.042 25.908 177.532 25.908H176.104V37.893H169.806V3.8147e-06H176.104ZM213.06 21.8025C213.06 20.9865 212.941 20.2215 212.703 19.5075C212.482 18.7765 212.142 18.139 211.683 17.595C211.224 17.051 210.637 16.626 209.923 16.32C209.226 15.997 208.41 15.8355 207.475 15.8355C205.656 15.8355 204.22 16.354 203.166 17.391C202.129 18.428 201.466 19.8985 201.177 21.8025H213.06ZM201.049 25.602C201.151 26.945 201.389 28.1095 201.763 29.0955C202.137 30.0645 202.63 30.872 203.242 31.518C203.854 32.147 204.577 32.623 205.41 32.946C206.26 33.252 207.195 33.405 208.215 33.405C209.235 33.405 210.11 33.286 210.841 33.048C211.589 32.81 212.235 32.5465 212.779 32.2575C213.34 31.9685 213.825 31.705 214.233 31.467C214.658 31.229 215.066 31.11 215.457 31.11C215.984 31.11 216.375 31.3055 216.63 31.6965L218.44 33.9915C217.743 34.8075 216.961 35.496 216.094 36.057C215.227 36.601 214.318 37.043 213.366 37.383C212.431 37.706 211.47 37.9355 210.484 38.0715C209.515 38.2075 208.572 38.2755 207.654 38.2755C205.835 38.2755 204.143 37.978 202.579 37.383C201.015 36.771 199.655 35.8785 198.499 34.7055C197.343 33.5155 196.434 32.0535 195.771 30.3195C195.108 28.5685 194.776 26.5455 194.776 24.2505C194.776 22.4655 195.065 20.791 195.643 19.227C196.221 17.646 197.046 16.2775 198.117 15.1215C199.205 13.9485 200.522 13.022 202.069 12.342C203.633 11.662 205.393 11.322 207.348 11.322C208.997 11.322 210.518 11.5855 211.912 12.1125C213.306 12.6395 214.505 13.413 215.508 14.433C216.511 15.436 217.293 16.677 217.854 18.156C218.432 19.618 218.721 21.2925 218.721 23.1795C218.721 24.1315 218.619 24.7775 218.415 25.1175C218.211 25.4405 217.82 25.602 217.242 25.602H201.049ZM229.889 16.269C230.705 14.705 231.674 13.481 232.796 12.597C233.918 11.696 235.244 11.2455 236.774 11.2455C237.981 11.2455 238.95 11.509 239.681 12.036L239.273 16.7535C239.188 17.0595 239.06 17.2805 238.89 17.4165C238.737 17.5355 238.525 17.595 238.253 17.595C237.998 17.595 237.615 17.5525 237.105 17.4675C236.612 17.3825 236.128 17.34 235.652 17.34C234.955 17.34 234.334 17.442 233.79 17.646C233.246 17.85 232.753 18.1475 232.311 18.5385C231.886 18.9125 231.504 19.3715 231.164 19.9155C230.841 20.4595 230.535 21.08 230.246 21.777V37.893H223.947V11.73H227.645C228.291 11.73 228.741 11.849 228.996 12.087C229.251 12.308 229.421 12.716 229.506 13.311L229.889 16.269Z" fill="black"/>
</svg>
