<svg width="280" height="52" viewBox="0 0 280 52" fill="none" xmlns="http://www.w3.org/2000/svg">
<path d="M35.088 9.07799C38.556 9.07799 41.344 10.149 43.452 12.291C45.594 14.399 46.665 17.357 46.665 21.165V37.74H39.525V22.134C39.525 19.924 38.964 18.241 37.842 17.085C36.72 15.895 35.19 15.3 33.252 15.3C31.314 15.3 29.767 15.895 28.611 17.085C27.489 18.241 26.928 19.924 26.928 22.134V37.74H19.788V22.134C19.788 19.924 19.227 18.241 18.105 17.085C16.983 15.895 15.453 15.3 13.515 15.3C11.543 15.3 9.97896 15.895 8.82296 17.085C7.70096 18.241 7.13996 19.924 7.13996 22.134V37.74H-4.26769e-05V9.48599H7.13996V12.903C8.05796 11.713 9.23096 10.778 10.659 10.098C12.121 9.41799 13.719 9.07799 15.453 9.07799C17.663 9.07799 19.635 9.55399 21.369 10.506C23.103 11.424 24.446 12.75 25.398 14.484C26.316 12.852 27.642 11.543 29.376 10.557C31.144 9.57099 33.048 9.07799 35.088 9.07799ZM80.9704 9.48599L63.4774 51.102H55.8784L61.9984 37.026L50.6764 9.48599H58.6834L65.9764 29.223L73.3714 9.48599H80.9704Z" fill="#FF6700"/>
<path d="M102.731 9.07799C104.873 9.07799 106.777 9.55399 108.443 10.506C110.109 11.424 111.401 12.801 112.319 14.637C113.271 16.439 113.747 18.615 113.747 21.165V37.74H106.607V22.134C106.607 19.89 106.046 18.173 104.924 16.983C103.802 15.759 102.272 15.147 100.334 15.147C98.3623 15.147 96.7983 15.759 95.6423 16.983C94.5203 18.173 93.9593 19.89 93.9593 22.134V37.74H86.8193V-1.0252e-05H93.9593V13.005C94.8773 11.781 96.1013 10.829 97.6313 10.149C99.1613 9.43499 100.861 9.07799 102.731 9.07799ZM120.701 23.511C120.701 20.655 121.262 18.122 122.384 15.912C123.54 13.702 125.087 12.002 127.025 10.812C128.997 9.62199 131.19 9.02699 133.604 9.02699C135.712 9.02699 137.548 9.45199 139.112 10.302C140.71 11.152 141.985 12.223 142.937 13.515V9.48599H150.128V37.74H142.937V33.609C142.019 34.935 140.744 36.04 139.112 36.924C137.514 37.774 135.661 38.199 133.553 38.199C131.173 38.199 128.997 37.587 127.025 36.363C125.087 35.139 123.54 33.422 122.384 31.212C121.262 28.968 120.701 26.401 120.701 23.511ZM142.937 23.613C142.937 21.879 142.597 20.4 141.917 19.176C141.237 17.918 140.319 16.966 139.163 16.32C138.007 15.64 136.766 15.3 135.44 15.3C134.114 15.3 132.89 15.623 131.768 16.269C130.646 16.915 129.728 17.867 129.014 19.125C128.334 20.349 127.994 21.811 127.994 23.511C127.994 25.211 128.334 26.707 129.014 27.999C129.728 29.257 130.646 30.226 131.768 30.906C132.924 31.586 134.148 31.926 135.44 31.926C136.766 31.926 138.007 31.603 139.163 30.957C140.319 30.277 141.237 29.325 141.917 28.101C142.597 26.843 142.937 25.347 142.937 23.613ZM196.77 9.48599L188.508 37.74H180.807L175.656 18.003L170.505 37.74H162.753L154.44 9.48599H161.682L166.68 31.008L172.086 9.48599H179.634L184.938 30.957L189.936 9.48599H196.77ZM217.861 37.74L208.273 25.704V37.74H201.133V-1.0252e-05H208.273V21.471L217.759 9.48599H227.041L214.597 23.664L227.143 37.74H217.861ZM257.681 23.001C257.681 24.021 257.613 24.939 257.477 25.755H236.822C236.992 27.795 237.706 29.393 238.964 30.549C240.222 31.705 241.769 32.283 243.605 32.283C246.257 32.283 248.144 31.144 249.266 28.866H256.967C256.151 31.586 254.587 33.83 252.275 35.598C249.963 37.332 247.124 38.199 243.758 38.199C241.038 38.199 238.59 37.604 236.414 36.414C234.272 35.19 232.589 33.473 231.365 31.263C230.175 29.053 229.58 26.503 229.58 23.613C229.58 20.689 230.175 18.122 231.365 15.912C232.555 13.702 234.221 12.002 236.363 10.812C238.505 9.62199 240.97 9.02699 243.758 9.02699C246.444 9.02699 248.841 9.60499 250.949 10.761C253.091 11.917 254.74 13.566 255.896 15.708C257.086 17.816 257.681 20.247 257.681 23.001ZM250.286 20.961C250.252 19.125 249.589 17.663 248.297 16.575C247.005 15.453 245.424 14.892 243.554 14.892C241.786 14.892 240.29 15.436 239.066 16.524C237.876 17.578 237.145 19.057 236.873 20.961H250.286ZM270.533 13.872C271.451 12.376 272.641 11.203 274.103 10.353C275.599 9.50299 277.299 9.07799 279.203 9.07799V16.575H277.316C275.072 16.575 273.372 17.102 272.216 18.156C271.094 19.21 270.533 21.046 270.533 23.664V37.74H263.393V9.48599H270.533V13.872Z" fill="black"/>
</svg>
